<?xml version="1.0" encoding="utf-8"?>
<!-- Generator: Adobe Illustrator 25.2.0, SVG Export Plug-In . SVG Version: 6.00 Build 0)  -->
<svg version="1.1" id="Layer_1" xmlns="http://www.w3.org/2000/svg" xmlns:xlink="http://www.w3.org/1999/xlink" x="0px" y="0px"
	 viewBox="0 0 73 72" style="enable-background:new 0 0 73 72;" xml:space="preserve">
<style type="text/css">
	.st0{fill:#FFFFFF;}
	.st1{fill:#6F6F6F;}
	.st2{fill:#0066B1;}
</style>
<g>
	<path class="st0" d="M58.1,35.9H36.6V14.6C48.5,14.6,58.1,24.1,58.1,35.9z M36.6,35.9v21.3c-11.9,0-21.5-9.5-21.5-21.3
		C15.2,35.9,36.6,35.9,36.6,35.9z"/>
	<path class="st1" d="M36.6,0C16.6,0,0.4,16.1,0.4,35.9c0,19.8,16.2,35.9,36.2,35.9s36.2-16.1,36.2-35.9C72.8,16.1,56.6,0,36.6,0z
		 M70.5,35.9c0,18.5-15.2,33.6-33.8,33.6S2.8,54.5,2.8,35.9c0-18.5,15.2-33.6,33.8-33.6S70.5,17.4,70.5,35.9z"/>
	<path class="st1" d="M36.6,14.6c-11.9,0-21.5,9.5-21.5,21.3c0,11.8,9.6,21.3,21.5,21.3s21.5-9.5,21.5-21.3
		C58.1,24.2,48.5,14.6,36.6,14.6z M56.7,35.9c0,11-9,19.9-20.1,19.9s-20.1-8.9-20.1-19.9c0-11,9-19.9,20.1-19.9S56.7,24.9,56.7,35.9
		z"/>
	<g>
		<path class="st1" d="M54.2,20.7c0.5,0.5,1.2,1.4,1.6,1.9l7.3-4.6c-0.4-0.5-0.9-1.2-1.4-1.7l-4.6,3l-0.3,0.3l0.2-0.3l2-4.1
			l-1.4-1.4l-4.1,2L53.1,16l0.3-0.3l3.1-4.6c-0.5-0.5-1.1-0.9-1.7-1.4l-4.7,7.3c0.6,0.4,1.4,1.1,1.9,1.6l4.4-2.3l0.3-0.2l-0.2,0.3
			L54.2,20.7L54.2,20.7z M37.5,11.5l2-4.4l0.1-0.4l0,0.4l0.2,5.9c0.7,0.1,1.4,0.2,2.1,0.3l-0.3-8.8c-1-0.1-2-0.2-3-0.2l-2,4.9
			l-0.1,0.4l-0.1-0.4l-2-4.9c-1,0-2,0.1-3,0.2l-0.3,8.8c0.7-0.1,1.4-0.2,2.1-0.3L33.6,7l0-0.4L33.7,7l2,4.5
			C35.7,11.5,37.5,11.5,37.5,11.5z M21.3,18.5c1.2-1.2,1.8-2.6,0.7-3.9c-0.6-0.7-1.7-0.9-2.6-0.5l-0.1,0l0-0.1
			c0.1-0.3,0.2-1.4-0.7-2.2c-0.5-0.4-1-0.5-1.6-0.4c-1.1,0.1-1.9,0.8-4.2,3.4c-0.7,0.8-1.7,2-2.3,2.7l6.3,5.9
			C18.9,21,19.7,20.2,21.3,18.5z M13.2,17c1.3-1.5,2.6-2.9,3.2-3.5c0.2-0.2,0.4-0.3,0.7-0.4c0.4-0.1,0.8,0.2,0.9,0.6
			c0.1,0.4-0.2,0.8-0.5,1.1c-0.7,0.7-3.1,3.3-3.1,3.3L13.2,17L13.2,17z M15.6,19.4c0,0,2.4-2.5,3.2-3.3c0.3-0.3,0.5-0.5,0.7-0.6
			c0.3-0.1,0.6-0.2,0.8,0c0.3,0.2,0.4,0.5,0.3,0.8c-0.1,0.4-0.4,0.7-0.6,1l-3.2,3.3C16.9,20.5,15.6,19.4,15.6,19.4z"/>
	</g>
	<path class="st2" d="M36.6,14.6v21.3H15.2C15.2,24.1,24.8,14.6,36.6,14.6z M58.1,35.9c0,11.8-9.6,21.3-21.5,21.3V35.9H58.1z"/>
</g>
</svg>
